<svg width="16" height="13" viewBox="0 0 16 13" fill="none" xmlns="http://www.w3.org/2000/svg">
<path fill-rule="evenodd" clip-rule="evenodd" d="M9.84341e-05 2.15414C-1.95112e-05 2.16127 -3.14003e-05 2.16839 6.24258e-05 2.17551V10.8333C6.24258e-05 12.0266 0.980211 13 2.18186 13H13.8181C15.0198 13 15.9999 12.0266 15.9999 10.8333V2.1756C16 2.16841 16 2.16122 15.9999 2.15404C15.993 0.966489 15.0155 0 13.8181 0H2.18186C0.984418 0 0.00692812 0.966547 9.84341e-05 2.15414ZM1.53211 1.84452C1.65238 1.60833 1.89971 1.44444 2.18186 1.44444H13.8181C14.1003 1.44444 14.3476 1.60833 14.4679 1.84452L8 6.34064L1.53211 1.84452ZM14.5454 3.55381V10.8333C14.5454 11.2289 14.2165 11.5556 13.8181 11.5556H2.18186C1.78353 11.5556 1.4546 11.2289 1.4546 10.8333V3.55381L7.58294 7.81389C7.83335 7.98796 8.16665 7.98796 8.41706 7.81389L14.5454 3.55381Z" fill="#808A93"/>
</svg>
