<svg width="16" height="18" viewBox="0 0 16 18" fill="none" xmlns="http://www.w3.org/2000/svg">
<path d="M7.01717 0.338139C6.80803 0.554674 6.69051 0.848379 6.69045 1.15465V4.14122H1.11507C0.819339 4.14122 0.535715 4.2629 0.326598 4.47948C0.117481 4.69607 0 4.98982 0 5.29612V9.91571C0 10.222 0.117481 10.5158 0.326598 10.7323C0.535715 10.9489 0.819339 11.0706 1.11507 11.0706H6.69045V18H8.9206V11.0706H12.859C13.0225 11.0705 13.1839 11.0333 13.3319 10.9614C13.4799 10.8896 13.6108 10.7849 13.7154 10.6548L15.8709 7.97548C15.9543 7.87172 16 7.74095 16 7.60591C16 7.47088 15.9543 7.34011 15.8709 7.23635L13.7154 4.55698C13.6108 4.42691 13.4799 4.32225 13.3319 4.2504C13.1839 4.17856 13.0225 4.14128 12.859 4.14122H8.9206V1.15465C8.92055 0.926271 8.85513 0.703031 8.7326 0.513154C8.61007 0.323278 8.43594 0.175289 8.23221 0.0878981C8.02849 0.000506892 7.80432 -0.0223635 7.58805 0.0221781C7.37178 0.0667197 7.17311 0.176673 7.01717 0.338139Z" fill="#021526" fill-opacity="0.5"/>
</svg>
