<svg width="15" height="15" viewBox="0 0 15 15" fill="none" xmlns="http://www.w3.org/2000/svg">
<path d="M9.08632 3.45996C9.69678 3.57906 10.2578 3.87762 10.6976 4.31742C11.1374 4.75722 11.436 5.31825 11.5551 5.92871M9.08632 0.959961C10.3546 1.10086 11.5373 1.66882 12.4402 2.57059C13.3431 3.47236 13.9126 4.65434 14.0551 5.92246M13.4301 10.91V12.785C13.4308 12.959 13.3951 13.1313 13.3254 13.2908C13.2557 13.4503 13.1534 13.5935 13.0251 13.7111C12.8969 13.8288 12.7454 13.9184 12.5805 13.9742C12.4157 14.0299 12.2409 14.0506 12.0676 14.035C10.1443 13.826 8.29695 13.1688 6.67382 12.1162C5.16372 11.1566 3.88341 9.87632 2.92382 8.36621C1.86756 6.73571 1.21022 4.87933 1.00507 2.94746C0.989455 2.77463 1.00999 2.60044 1.06539 2.43598C1.12078 2.27152 1.2098 2.12039 1.3268 1.99222C1.4438 1.86406 1.5862 1.76165 1.74494 1.69154C1.90368 1.62142 2.07529 1.58512 2.24882 1.58496H4.12382C4.42714 1.58198 4.72119 1.68939 4.95117 1.88717C5.18116 2.08495 5.33137 2.35962 5.37382 2.65996C5.45296 3.26 5.59973 3.84917 5.81132 4.41621C5.89541 4.63991 5.91361 4.88303 5.86376 5.11676C5.81392 5.35049 5.69811 5.56503 5.53007 5.73496L4.73632 6.52871C5.62605 8.09343 6.92161 9.38899 8.48632 10.2787L9.28007 9.48496C9.45 9.31692 9.66454 9.20112 9.89827 9.15127C10.132 9.10142 10.3751 9.11962 10.5988 9.20371C11.1659 9.41531 11.755 9.56207 12.3551 9.64121C12.6587 9.68404 12.9359 9.83697 13.1342 10.0709C13.3324 10.3048 13.4377 10.6034 13.4301 10.91Z" stroke="#808A93" stroke-width="1.5" stroke-linecap="round" stroke-linejoin="round"/>
</svg>
